<svg width="24" height="24" viewBox="0 0 24 24" fill="none" xmlns="http://www.w3.org/2000/svg">
<g clip-path="url(#clip0_8149_5118)">
<path d="M12 0C5.383 0 0 5.383 0 12C0 18.617 5.383 24 12 24C18.617 24 24 18.617 24 12C24 5.383 18.617 0 12 0ZM12 22C6.486 22 2 17.514 2 12C2 6.486 6.486 2 12 2C17.514 2 22 6.486 22 12C22 17.514 17.514 22 12 22ZM9.171 9.171C8.416 9.926 8 10.931 8 12C8 13.069 8.416 14.073 9.171 14.829C10.731 16.389 13.269 16.389 14.828 14.829C15.219 14.438 15.851 14.438 16.242 14.829C16.633 15.22 16.633 15.852 16.242 16.243C15.328 17.158 14.187 17.703 12.999 17.902V19C12.999 19.552 12.551 20 11.999 20C11.447 20 10.999 19.552 10.999 19V17.902C9.811 17.703 8.671 17.158 7.756 16.243C5.417 13.904 5.417 10.097 7.756 7.758C8.67 6.843 9.811 6.298 10.999 6.099V5.001C10.999 4.449 11.447 4.001 11.999 4.001C12.551 4.001 12.999 4.449 12.999 5.001V6.099C14.187 6.298 15.327 6.843 16.242 7.758C16.633 8.149 16.633 8.781 16.242 9.172C15.851 9.563 15.219 9.563 14.828 9.172C13.268 7.612 10.73 7.612 9.171 9.172V9.171Z" fill="white"/>
</g>
<defs>
<clipPath id="clip0_8149_5118">
<rect width="24" height="24" fill="white"/>
</clipPath>
</defs>
</svg>
